<svg xmlns="http://www.w3.org/2000/svg" width="29.405" height="29.54" viewBox="0 0 29.405 29.54"><path d="M30.213,4.077v5.972a1.342,1.342,0,0,1-1.342,1.342H22.832a1.342,1.342,0,0,1-1.342-1.543A1.409,1.409,0,0,1,22.9,8.707h2.885a12.079,12.079,0,0,0-21,6.845,1.342,1.342,0,0,1-1.342,1.208h0A1.342,1.342,0,0,1,2.1,15.283,14.763,14.763,0,0,1,27.529,6.627V4.01a1.342,1.342,0,0,1,1.543-1.342,1.409,1.409,0,0,1,1.141,1.409Z" transform="translate(-2.09 -1.989)"/><path d="M4,36.682V30.71a1.342,1.342,0,0,1,1.342-1.342h6.039a1.342,1.342,0,0,1,1.342,1.543,1.409,1.409,0,0,1-1.409,1.141H8.429a12.079,12.079,0,0,0,21-6.845A1.342,1.342,0,0,1,30.774,24h0a1.342,1.342,0,0,1,1.342,1.476A14.763,14.763,0,0,1,6.684,34.133V36.75a1.342,1.342,0,0,1-1.543,1.342A1.409,1.409,0,0,1,4,36.682Z" transform="translate(-2.718 -9.23)"/></svg>