<svg xmlns="http://www.w3.org/2000/svg" width="29.333" height="29.333" viewBox="0 0 29.333 29.333"><path d="M16.667,31.333A14.6,14.6,0,1,0,6.276,27.057,14.667,14.667,0,0,0,16.667,31.333Zm0-26.667a12,12,0,1,1-12,12,12,12,0,0,1,12-12Z" transform="translate(-2 -2)"/><path d="M23.333,22.667a1.333,1.333,0,0,0,1.333-1.333v-8a1.333,1.333,0,1,0-2.667,0v8A1.333,1.333,0,0,0,23.333,22.667Z" transform="translate(-8.667 -5.333)"/><ellipse cx="2" cy="1.5" rx="2" ry="1.5" transform="translate(12.311 19.667)"/></svg>