<svg xmlns="http://www.w3.org/2000/svg" width="27.965" height="27.965" viewBox="0 0 27.965 27.965"><path d="M25.916,6.084a14.184,14.184,0,0,0-19.845,0A14.057,14.057,0,0,0,2,15.879a1.272,1.272,0,0,0,.382.891,1.081,1.081,0,0,0,.891.382,1.272,1.272,0,0,0,1.272-1.272A11.066,11.066,0,0,1,7.914,7.93,11.449,11.449,0,0,1,24.072,24.085a11.513,11.513,0,0,1-6.806,3.308V15.243l2.926,2.926a1.209,1.209,0,0,0,1.908-.127,1.336,1.336,0,0,0-.127-1.717L16.884,11.3a1.209,1.209,0,0,0-1.781,0l-5.089,5.025a1.336,1.336,0,0,0-.127,1.717,1.209,1.209,0,0,0,1.908.127l2.926-2.926V28.728A1.272,1.272,0,0,0,15.994,30h.127a14.057,14.057,0,0,0,9.8-4.071,14.184,14.184,0,0,0,0-19.845Z" transform="translate(-2 -2.035)"/></svg>