<svg xmlns="http://www.w3.org/2000/svg" width="17.949" height="20.045" viewBox="0 0 17.949 20.045"><path d="M12.92,8.279a11.953,11.953,0,0,0-.529,3.649,11.86,11.86,0,0,0,7.933,10.419,7.669,7.669,0,0,1-3.12.635h-.9A7.933,7.933,0,0,1,12.92,8.332m3.173-3.279H16.04A10.154,10.154,0,0,0,7.049,16.212a10.154,10.154,0,0,0,9.044,8.832H17.2A10.155,10.155,0,0,0,24.82,21.66a.476.476,0,0,0-.37-.793h-1a9.8,9.8,0,0,1-8.938-9.044,9.2,9.2,0,0,1,2.01-5.976A.529.529,0,0,0,16.093,5Z" transform="translate(-6.992 -5)" fill="#2e2e2e"/></svg>