<svg xmlns="http://www.w3.org/2000/svg" width="22.541" height="22.541" viewBox="0 0 22.541 22.541"><path d="M21.57,15.935l2.818-.768a11.783,11.783,0,0,0,0-3.791l-2.818-.768a.922.922,0,0,1-.564-1.332l1.434-2.562A10.553,10.553,0,0,0,19.828,4.1L17.267,5.535l-.41.1a.922.922,0,0,1-.922-.666l-.768-2.818a11.783,11.783,0,0,0-3.791,0l-.768,2.818a.922.922,0,0,1-.922.666l-.41-.1L6.713,4.1A10.553,10.553,0,0,0,4.1,6.713L5.535,9.275a.922.922,0,0,1-.564,1.332l-2.818.768a11.783,11.783,0,0,0,0,3.791l2.818.768a.922.922,0,0,1,.564,1.332L4.1,19.828a10.553,10.553,0,0,0,2.613,2.613l2.561-1.434.41-.1a.922.922,0,0,1,.922.666l.768,2.818a11.783,11.783,0,0,0,3.791,0l.768-2.818a.922.922,0,0,1,.922-.666l.41.1,2.562,1.434a10.553,10.553,0,0,0,2.613-2.613l-1.434-2.562a.922.922,0,0,1,.564-1.332Zm-.615-2h-.1a3.125,3.125,0,0,0-1.742,1.691,2.92,2.92,0,0,0,.051,2.459h.051v.1l.768,1.281a1.537,1.537,0,0,1-.41.41l-1.281-.768h-.154a2.766,2.766,0,0,0-1.281-.307,3.074,3.074,0,0,0-2.869,2v.154h0l-.461,1.537h-.512l-.41-1.486h0v-.1a3.074,3.074,0,0,0-2.92-2.049,2.766,2.766,0,0,0-1.281.307H8.25l-1.281.768a1.537,1.537,0,0,1-.41-.41l.768-1.281v-.1h.051a2.92,2.92,0,0,0,.051-2.459,3.125,3.125,0,0,0-1.742-1.691H5.535l-1.486-.461v-.512l1.486-.41h.154a3.125,3.125,0,0,0,1.742-1.691,2.92,2.92,0,0,0-.051-2.459H7.328v-.1L6.56,7.072l.41-.41,1.281.768H8.4a2.766,2.766,0,0,0,1.281.307,3.074,3.074,0,0,0,2.869-2V5.586h0l.461-1.537h.512l.41,1.486h0v.1a3.074,3.074,0,0,0,2.92,2.049,2.766,2.766,0,0,0,1.281-.307h.154l1.281-.768a1.537,1.537,0,0,1,.41.41L19.213,8.3v.1h-.051a2.92,2.92,0,0,0-.051,2.459,3.125,3.125,0,0,0,1.742,1.691h.154l1.486.41v.512l-1.486.41Z" transform="translate(-2 -2)"/><path d="M19.611,15a4.611,4.611,0,1,0,4.611,4.611A4.611,4.611,0,0,0,19.611,15Zm0,7.172a2.562,2.562,0,1,1,2.561-2.561A2.562,2.562,0,0,1,19.611,22.172Z" transform="translate(-8.34 -8.34)"/></svg>