<svg xmlns="http://www.w3.org/2000/svg" width="23.271" height="23.271" viewBox="0 0 23.271 23.271"><path d="M23.058,6.231a1.058,1.058,0,0,0,1.058-1.058V3.058a1.058,1.058,0,0,0-2.116,0V5.173A1.058,1.058,0,0,0,23.058,6.231Z" transform="translate(-11.422 -2)" fill="#d5d5d5"/><path d="M23.058,38A1.058,1.058,0,0,0,22,39.058v2.116a1.058,1.058,0,1,0,2.116,0V39.058A1.058,1.058,0,0,0,23.058,38Z" transform="translate(-11.422 -18.96)" fill="#d5d5d5"/><path d="M35,11.172l1.534-1.481a1.216,1.216,0,0,0,0-1.534,1.216,1.216,0,0,0-1.534,0L33.523,9.691A1.058,1.058,0,1,0,35,11.172Z" transform="translate(-16.652 -4.773)" fill="#d5d5d5"/><path d="M9.691,33.523,8.158,35a1.216,1.216,0,0,0,0,1.534,1.216,1.216,0,0,0,1.534,0L11.172,35a1.058,1.058,0,1,0-1.481-1.481Z" transform="translate(-4.773 -16.652)" fill="#d5d5d5"/><path d="M41.173,22H39.058a1.058,1.058,0,1,0,0,2.116h2.116a1.058,1.058,0,1,0,0-2.116Z" transform="translate(-18.96 -11.422)" fill="#d5d5d5"/><path d="M6.231,23.058A1.058,1.058,0,0,0,5.173,22H3.058a1.058,1.058,0,0,0,0,2.116H5.173A1.058,1.058,0,0,0,6.231,23.058Z" transform="translate(-2 -11.422)" fill="#d5d5d5"/><path d="M35,33.523A1.058,1.058,0,1,0,33.523,35L35,36.538A1.111,1.111,0,1,0,36.538,35Z" transform="translate(-16.652 -16.652)" fill="#d5d5d5"/><path d="M9.691,11.172a1.058,1.058,0,0,0,1.481-1.481L9.691,8.158a1.216,1.216,0,0,0-1.534,0,1.216,1.216,0,0,0,0,1.534Z" transform="translate(-4.773 -4.773)" fill="#d5d5d5"/><path d="M19.289,14a5.289,5.289,0,1,0,5.289,5.289A5.289,5.289,0,0,0,19.289,14Zm0,8.462a3.173,3.173,0,1,1,3.173-3.173A3.173,3.173,0,0,1,19.289,22.462Z" transform="translate(-7.653 -7.653)" fill="#d5d5d5"/></svg>